<svg xmlns="http://www.w3.org/2000/svg" width="512" height="512" viewBox="0 0 40 40">
  <defs>
    <linearGradient id="lf" x1="0%" y1="0%" x2="100%" y2="100%">
      <stop offset="0%" stop-color="#8B5CF6"/>
      <stop offset="100%" stop-color="#6D28D9"/>
    </linearGradient>
    <linearGradient id="rf" x1="0%" y1="0%" x2="100%" y2="100%">
      <stop offset="0%" stop-color="#3B82F6"/>
      <stop offset="100%" stop-color="#06B6D4"/>
    </linearGradient>
    <linearGradient id="tf" x1="0%" y1="0%" x2="100%" y2="0%">
      <stop offset="0%" stop-color="#7C3AED"/>
      <stop offset="100%" stop-color="#2563EB"/>
    </linearGradient>
    <linearGradient id="wg" x1="0%" y1="0%" x2="100%" y2="100%">
      <stop offset="0%" stop-color="#A78BFA" stop-opacity="0.6"/>
      <stop offset="100%" stop-color="#60A5FA" stop-opacity="0.3"/>
    </linearGradient>
  </defs>
  <polygon points="8,18 20,11 20,28 8,35" fill="url(#lf)"/>
  <polygon points="20,11 32,18 32,35 20,28" fill="url(#rf)"/>
  <polygon points="8,18 20,11 32,18 20,25" fill="url(#tf)" opacity="0.85"/>
  <line x1="20" y1="28" x2="12" y2="33" stroke="url(#wg)" stroke-width="0.5" opacity="0.6"/>
  <line x1="20" y1="28" x2="28" y2="33" stroke="url(#wg)" stroke-width="0.5" opacity="0.6"/>
  <line x1="20" y1="28" x2="20" y2="37" stroke="url(#wg)" stroke-width="0.5" opacity="0.5"/>
  <polygon points="20,28 12,33 20,37 28,33" fill="none" stroke="url(#wg)" stroke-width="0.4" opacity="0.4"/>
  <line x1="20" y1="37" x2="8" y2="35" stroke="url(#wg)" stroke-width="0.3" opacity="0.3"/>
  <line x1="20" y1="37" x2="32" y2="35" stroke="url(#wg)" stroke-width="0.3" opacity="0.3"/>
  <polygon points="13,14 14.5,12.5 16,14 14.5,15.5" fill="white" opacity="0.9"/>
  <line x1="14.5" y1="11" x2="14.5" y2="17" stroke="white" stroke-width="0.4" opacity="0.5"/>
  <line x1="11.5" y1="14" x2="17.5" y2="14" stroke="white" stroke-width="0.4" opacity="0.5"/>
</svg>
